<svg xmlns="http://www.w3.org/2000/svg" viewBox="0 0 32 32" fill="none">
  <rect width="32" height="32" rx="8" fill="url(#grad)"/>
  <path d="M16 7c-2.5 0-4.5 1.5-5.5 3.5C9 12 8 14 8 16c0 2.5 1 4.5 2.5 5.5.5.4 1.5.5 2 .5.8 0 1.5-.3 2-.8.5-.4 1-.7 1.5-.7s1 .3 1.5.7c.5.5 1.2.8 2 .8.5 0 1.5-.1 2-.5C23 20.5 24 18.5 24 16c0-2-1-4-2.5-5.5C20.5 8.5 18.5 7 16 7z" fill="white"/>
  <defs>
    <linearGradient id="grad" x1="0" y1="0" x2="32" y2="32">
      <stop offset="0%" stop-color="#2db4a0"/>
      <stop offset="100%" stop-color="#1a6b6b"/>
    </linearGradient>
  </defs>
</svg>
